PathFileType	4	(X/Y/Z)	C:\Users\Basilio\Documents\Thesis Gigler\squatting_fais\c3dfiles\058\SJ_pre5\markers_experimental.trc
DataRate	CameraRate	NumFrames	NumMarkers	Units	OrigDataRate	OrigDataStartFrame	OrigNumFrames
200.000000	200.000000	4	61	mm	200.000000	463	1235
Frame#	Time	FHD			LBHD			RBHD			C7			T10			CLAV			LSHO			LUUPA			LMUPA			LDUPA			LLEP			LMEP			LRAD			LUL			LRFIN			RSHO			RUPA1			RMUPA			RDUPA			RLEP			RMEP			RRAD			RUL			RUFIN			LASI			RASI			USACR			LSACR			RSACR			LTHI1			LTHI2			LTHI3			LTHI4			LLFC			LMFC			LTIB1			LTIB2			LTIB3			LTIB4			LLMAL			LMMAL			LHEE			LMT1			LMT2			LMT5			RTHI			RTHI2			RTHI3			RTHI4			RLFC			RMFC			RTIB1			RTIB2			RTIB3			RTIB4			RLMAL			RMMAL			RHEE			RMT1			RMT2			RMT5			
		X1	Y1	Z1	X2	Y2	Z2	X3	Y3	Z3	X4	Y4	Z4	X5	Y5	Z5	X6	Y6	Z6	X7	Y7	Z7	X8	Y8	Z8	X9	Y9	Z9	X10	Y10	Z10	X11	Y11	Z11	X12	Y12	Z12	X13	Y13	Z13	X14	Y14	Z14	X15	Y15	Z15	X16	Y16	Z16	X17	Y17	Z17	X18	Y18	Z18	X19	Y19	Z19	X20	Y20	Z20	X21	Y21	Z21	X22	Y22	Z22	X23	Y23	Z23	X24	Y24	Z24	X25	Y25	Z25	X26	Y26	Z26	X27	Y27	Z27	X28	Y28	Z28	X29	Y29	Z29	X30	Y30	Z30	X31	Y31	Z31	X32	Y32	Z32	X33	Y33	Z33	X34	Y34	Z34	X35	Y35	Z35	X36	Y36	Z36	X37	Y37	Z37	X38	Y38	Z38	X39	Y39	Z39	X40	Y40	Z40	X41	Y41	Z41	X42	Y42	Z42	X43	Y43	Z43	X44	Y44	Z44	X45	Y45	Z45	X46	Y46	Z46	X47	Y47	Z47	X48	Y48	Z48	X49	Y49	Z49	X50	Y50	Z50	X51	Y51	Z51	X52	Y52	Z52	X53	Y53	Z53	X54	Y54	Z54	X55	Y55	Z55	X56	Y56	Z56	X57	Y57	Z57	X58	Y58	Z58	X59	Y59	Z59	X60	Y60	Z60	X61	Y61	Z61	

464	2.315	60.07553863525392	1114.274047851563	-829.5276489257815	-102.8375549316407	1085.599853515625	-901.3826293945315	71.14627075195314	1120.612060546875	-971.4039306640627	-145.4429931640625	1021.833374023438	-915.822204589844	-404.1318969726564	872.988464355469	-895.599304199219	-56.97346878051759	868.5368652343752	-896.757019042969	-22.39800643920899	905.2757568359377	-1060.171508789063	-182.0941772460938	924.4520263671877	-1230.402465820313	-200.9585723876954	877.5012207031252	-1232.707885742188	-241.3117065429688	907.9877929687502	-1265.195678710938	-323.8195800781251	891.5991210937502	-1295.556518554688	-359.5229797363282	945.0021972656252	-1249.289428710938	-477.7838745117189	772.5422363281252	-1098.100708007813	-421.6422119140626	735.6472778320314	-1077.316772460938	-488.1063232421876	710.1564941406251	-1150.155517578125	-27.75444030761719	928.8752441406252	-735.9200439453126	-192.6931762695313	967.5635986328127	-580.3577880859376	-211.5661926269532	920.7630615234377	-576.3197631835939	-251.4398498535157	950.349792480469	-544.1981201171876	-319.5803527832032	949.3779907226565	-513.9025268554689	-371.1041564941407	986.5179443359377	-579.1915283203126	-444.3245849609376	771.7717895507815	-677.5129394531251	-442.9151306152345	719.1330566406251	-615.4082031250001	-396.988006591797	719.6943969726564	-708.4452514648439	nan	nan	nan	nan	nan	nan	-527.9109497070314	794.5704345703127	-884.380310058594	-555.7412719726564	776.0289306640627	-911.4815673828127	-555.2398071289064	776.1920166015627	-854.3544921875002	-371.7804870605469	577.3572387695314	-1134.485229492188	-287.9144287109376	570.7140502929689	-1152.839477539063	-260.9447631835938	602.9494628906251	-1127.031494140625	-255.9547424316407	518.3533935546876	-1163.575073242188	-182.558349609375	472.7595214843751	-1169.309204101563	-147.6303405761719	457.4172363281251	-1051.747924804688	-149.0027160644532	337.1360778808594	-1144.861328125	-221.4578399658204	331.7017822265626	-1193.427978515625	-186.2128295898438	308.1129760742188	-1174.930053710938	-226.2806243896485	235.936019897461	-1147.859375	-364.8666381835938	89.71024322509767	-1155.662231445313	-329.2277526855469	94.59722900390626	-1070.51904296875	-428.4695434570314	50.12685012817384	-1101.458618164063	-203.2999267578126	63.0531692504883	-1119.283569335938	-206.2348327636719	60.90946578979494	-1166.132202148438	-260.7592773437501	35.9311752319336	-1213.902709960938	-456.6009521484376	568.5867309570314	-654.2283935546876	-392.4265747070314	580.8158569335939	-641.5255737304689	-376.8984375000001	609.2041625976564	-647.1721801757814	-334.1083984375001	522.4653930664064	-628.7701416015626	-197.5200653076172	458.5950317382814	-607.6480102539064	-141.7875518798828	453.8232727050782	-731.8687744140626	-191.5016326904297	280.2323913574219	-689.3151245117189	-267.4005737304688	226.2194976806641	-627.9364013671876	-234.6198120117188	208.7634887695313	-656.4476928710939	-256.7609558105469	171.4784545898438	-694.1850585937501	-355.3119201660157	93.04002380371095	-657.5853271484376	-313.8625488281251	99.80196380615237	-740.7993164062501	-420.745574951172	52.17536926269533	-720.9023437500001	-205.7237854003907	56.03170776367189	-682.3190917968751	-214.4882812500001	61.73495864868165	-630.7192382812501	-265.1773376464844	25.30925750732423	-586.9251708984376	
465	2.32	60.10489654541017	1114.108032226563	-829.4477539062502	-102.6719436645508	1085.532592773438	-901.2641601562502	71.25859832763673	1120.424438476563	-971.3439941406252	-145.1883392333985	1021.518920898438	-915.7852172851565	-404.0712280273439	872.901794433594	-895.4735107421877	-57.01863861083986	868.4202880859377	-896.7418212890627	-22.3772144317627	905.2414550781252	-1060.100708007813	-181.9474334716797	924.3930664062502	-1230.331665039063	-201.0012359619141	877.396423339844	-1232.618041992188	-241.1654052734376	907.880310058594	-1265.168334960938	-323.6633300781251	891.5665283203127	-1295.526123046875	-359.4346313476563	945.0310058593752	-1249.233520507813	-477.8435058593751	772.5293579101565	-1097.99755859375	-421.7013549804689	735.5585327148439	-1077.057739257813	-488.0682373046876	710.1491699218751	-1150.074096679688	-27.72734451293946	928.7881469726565	-735.8822631835939	-192.4486846923829	967.3822021484377	-580.3629150390626	-211.4148101806641	920.6085205078127	-576.3429565429689	-251.3928222656251	950.2893066406252	-544.1162719726564	-319.5278930664063	949.361511230469	-513.8635253906251	-370.9169311523438	986.483337402344	-579.1610107421876	-444.231903076172	771.708679199219	-677.4103393554689	-442.8612670898439	719.1068725585939	-615.3319702148439	-396.9756774902345	719.6891479492189	-708.3454589843751	nan	nan	nan	nan	nan	nan	-527.9279785156251	794.480407714844	-884.2393188476565	-555.7048339843751	775.989440917969	-911.387390136719	-555.1806640625001	776.1110839843752	-854.2729492187502	-371.7856445312501	577.3593139648439	-1134.36962890625	-287.9150390625001	570.6760864257814	-1152.727783203125	-260.9047546386719	602.9514160156251	-1126.894165039063	-255.8521423339844	518.4054565429689	-1163.493530273438	-182.6287689208985	472.7680053710939	-1169.169067382813	-147.7025146484375	457.4019470214845	-1051.662353515625	-148.9972076416016	337.0316162109376	-1144.746704101563	-221.413070678711	331.6936340332032	-1193.340209960938	-186.1857147216797	308.1120910644532	-1174.840087890625	-226.2791442871094	235.9521484375001	-1147.751342773438	-364.7986450195313	89.6994094848633	-1155.669311523438	-329.2036132812501	94.61460876464845	-1070.486206054688	-428.4508666992189	50.14682006835939	-1101.46240234375	-203.3083038330079	63.00463867187501	-1119.268432617188	-206.237045288086	60.68259811401369	-1166.002075195313	-260.4387817382813	35.91913223266602	-1214.015869140625	-456.8057861328126	568.5418090820314	-654.1636352539064	-392.5684204101564	580.8532104492189	-641.4737548828126	-376.9304504394532	609.1043090820314	-647.1178588867189	-334.1875000000001	522.4542236328126	-628.7393188476564	-197.5638885498047	458.6368713378907	-607.5139160156251	-141.8523864746094	453.7951965332032	-731.5913696289064	-191.5012512207032	280.2813110351563	-689.1756591796876	-267.5675964355469	226.2313690185547	-627.8440551757814	-234.7307128906251	208.7079772949219	-656.3392944335939	-256.6837158203126	171.5125122070313	-694.1160278320314	-355.3243408203126	93.02612304687501	-657.5659179687501	-313.8341064453126	99.79904937744143	-740.7345581054689	-420.7975463867189	52.17980194091798	-720.9387207031251	-205.723129272461	56.02966308593751	-682.3139648437501	-214.5122528076172	61.73537445068361	-630.7305908203126	-265.2367248535157	25.25610733032227	-586.9209594726564	
466	2.325	60.17348480224611	1113.913696289063	-829.3913574218752	-102.6345825195313	1085.513549804688	-901.1428833007815	71.36170959472658	1120.315185546875	-971.2668457031252	-145.2335815429688	1021.42333984375	-915.7220458984377	-403.9849243164064	872.793640136719	-895.367858886719	-57.03409957885744	868.2944946289065	-896.6723632812502	-22.39044570922852	905.1426391601565	-1060.030029296875	-181.92529296875	924.288513183594	-1230.327758789063	-200.8611297607422	877.3145141601565	-1232.588134765625	-241.1299896240235	907.7702636718752	-1265.169921875	-323.6792907714844	891.5051879882815	-1295.439453125	-359.3519592285157	944.9992675781252	-1249.187866210938	-477.8384399414064	772.4888916015627	-1097.917846679688	-421.9193725585939	735.4827270507814	-1076.823120117188	-488.0110778808595	710.1307373046876	-1150.030151367188	-27.66050338745118	928.7019042968752	-735.7745361328126	-192.4281005859376	967.1695556640627	-580.3045654296876	-211.3566436767579	920.4392700195315	-576.3266601562501	-251.3343200683594	950.2017211914065	-544.0504150390626	-319.4489135742188	949.319519042969	-513.8222656250001	-370.8544921875001	986.431823730469	-579.0842895507814	-444.1883850097657	771.6763916015627	-677.2572631835939	-442.796844482422	719.0902709960939	-615.2332763671876	-396.9471435546876	719.6322021484376	-708.2925415039064	nan	nan	nan	nan	nan	nan	-527.9232788085939	794.4114379882815	-884.1232910156252	-555.6924438476564	775.9475708007815	-911.3291015625002	-555.1591796875001	776.0065917968752	-854.132019042969	-371.7280883789063	577.3742065429689	-1134.289672851563	-288.0428466796876	570.7589111328126	-1152.639282226563	-260.8673095703126	602.9545288085939	-1126.784423828125	-255.8656463623047	518.4435424804689	-1163.413208007813	-182.3609008789063	472.8233337402345	-1169.426025390625	-147.6608581542969	457.4359130859376	-1051.549194335938	-148.9596557617188	337.0930786132813	-1144.728515625	-221.3915405273438	331.7323913574219	-1193.225341796875	-186.0215911865235	308.1165161132813	-1174.821166992188	-226.2935791015626	235.9821166992188	-1147.728271484375	-364.7561950683594	89.71359252929689	-1155.644897460938	-329.1870117187501	94.60159301757814	-1070.4921875	-428.4549560546876	50.1544532775879	-1101.46044921875	-203.2821197509766	63.02285003662111	-1119.246704101563	-206.2176208496094	60.61013793945314	-1165.983642578125	-260.4514160156251	35.91867828369141	-1214.007690429688	-456.9855957031251	568.5286865234376	-654.0757446289064	-392.705047607422	580.7734375000001	-641.3834838867189	-376.9214477539063	609.0696411132814	-647.0245971679689	-334.2431030273438	522.4183349609376	-628.6879882812501	-197.6526641845704	458.6235961914064	-607.3527832031251	-142.073974609375	453.8060913085939	-731.3829956054689	-191.5552825927735	280.2661437988282	-689.0762939453126	-267.5734558105469	226.2930755615235	-627.7702636718751	-234.8585662841797	208.6966400146485	-656.1916503906251	-256.7076110839844	171.4687805175782	-694.0515747070314	-355.4034729003907	93.01819610595705	-657.5227050781251	-313.8587036132813	99.862907409668	-740.7307128906251	-420.8114318847657	52.19357681274415	-720.8750610351564	-205.7252807617188	56.03361892700197	-682.3186035156251	-214.4835968017579	61.73607254028322	-630.6532592773439	-265.2341613769532	25.25074577331544	-586.9190063476564	
467	2.33	60.23521423339845	1113.837158203125	-829.3262939453127	-102.5447540283203	1085.420654296875	-901.0486450195315	71.40437316894533	1120.17822265625	-971.203308105469	-145.2033386230469	1021.352905273438	-915.6333618164065	-403.9295043945314	872.7094726562502	-895.2583618164065	-56.99385833740236	868.2276000976565	-896.6173095703127	-22.25885009765625	905.1817016601565	-1060.02099609375	-181.8551940917969	924.1838989257815	-1230.3203125	-200.8133087158204	877.2200927734377	-1232.585693359375	-241.0220336914063	907.6569824218752	-1265.132690429688	-323.6267700195313	891.4763793945315	-1295.361083984375	-359.2831726074219	944.9978637695315	-1249.131225585938	-477.7391357421876	772.4313964843752	-1097.840576171875	-421.7483825683595	735.4941406250001	-1076.815795898438	-487.975311279297	710.1488037109376	-1149.953857421875	-27.67633628845216	928.5716552734377	-735.7229614257814	-192.3267974853516	967.0584106445315	-580.2142333984376	-211.2307434082032	920.176452636719	-576.2913208007814	-251.0931091308594	950.1090087890627	-544.0612792968751	-319.3782043457032	949.2676391601565	-513.6545410156251	-370.7148742675782	986.3567504882815	-579.0322265625001	-444.135467529297	771.582702636719	-677.1736450195314	-442.7837524414064	719.0070190429689	-615.1542358398439	-396.9305725097657	719.6250000000001	-708.2695312500001	nan	nan	nan	nan	nan	nan	-527.8148803710939	794.2839965820315	-884.0385742187502	-555.6491699218751	775.8442382812502	-911.2409667968752	-555.1291503906251	776.0117797851565	-854.0354003906252	-371.7945251464844	577.3443603515626	-1134.205078125	-287.9496154785157	570.6775512695314	-1152.553955078125	-260.7795104980469	602.9550170898439	-1126.6953125	-255.8995819091797	518.4621582031251	-1163.322021484375	-182.4130096435547	472.8330383300782	-1169.320556640625	-147.8373565673828	457.3745422363282	-1051.503540039063	-148.8477325439453	337.0271301269532	-1144.596435546875	-221.3809814453126	331.7659606933594	-1193.111083984375	-185.9973907470703	308.1241760253907	-1174.731201171875	-226.249740600586	235.9919891357422	-1147.6904296875	-364.7501831054688	89.74494934082033	-1155.644897460938	-329.0422058105469	94.59506988525392	-1070.459350585938	-428.4257812500001	50.14735412597658	-1101.441284179688	-203.2144012451172	63.0105667114258	-1119.183715820313	-206.2876586914063	60.87474822998048	-1166.133178710938	-260.7270507812501	35.95599365234376	-1213.90478515625	-457.111297607422	568.4742431640626	-654.0147705078126	-392.775848388672	580.7185668945314	-641.3457031250001	-377.0369873046876	609.0655517578126	-646.9537963867189	-334.4478759765626	522.3240966796876	-628.5677490234376	-197.6819305419922	458.658660888672	-607.1950073242189	-142.0641326904297	453.8802795410157	-731.2031860351564	-191.6030426025391	280.2939147949219	-688.9833374023439	-267.5816345214844	226.2782745361329	-627.7145996093751	-234.9502868652344	208.7088928222657	-656.1433715820314	-256.7936706542969	171.529281616211	-693.9858398437501	-355.4208984375001	93.01811981201173	-657.5274658203126	-313.8638000488282	99.82252502441409	-740.6726684570314	-420.8020324707032	52.19770812988283	-720.8611450195314	-205.7237701416016	56.03328323364259	-682.3100585937501	-214.5295104980469	61.72391891479494	-630.6632080078126	-265.2121276855469	25.26311492919923	-586.9329223632814	
